HIERARCHY
ROOT root
{
	OFFSET 0.000000 0.000000 0.000000
	CHANNELS 6 Xposition Yposition Zposition Zrotation Yrotation Xrotation
	JOINT lhip
	{
		OFFSET 0.058581 -0.082280 -0.017664
		CHANNELS 3 Zrotation Yrotation Xrotation
		JOINT lknee
		{
			OFFSET 0.043451 -0.386469 0.008037
			CHANNELS 3 Zrotation Yrotation Xrotation
			JOINT lankle
			{
				OFFSET -0.014790 -0.426874 -0.037428
				CHANNELS 3 Zrotation Yrotation Xrotation
				JOINT ltoe
				{
					OFFSET 0.041054 -0.060286 0.122042
					CHANNELS 3 Zrotation Yrotation Xrotation
					End Site
					{
						OFFSET 0.000000 0.000000 0.000000
					}
				}
			}
		}
	}
	JOINT rhip
	{
		OFFSET -0.060310 -0.090513 -0.013543
		CHANNELS 3 Zrotation Yrotation Xrotation
		JOINT rknee
		{
			OFFSET -0.043257 -0.383688 -0.004843
			CHANNELS 3 Zrotation Yrotation Xrotation
			JOINT rankle
			{
				OFFSET 0.019056 -0.420046 -0.034562
				CHANNELS 3 Zrotation Yrotation Xrotation
				JOINT rtoe
				{
					OFFSET -0.034840 -0.062106 0.130323
					CHANNELS 3 Zrotation Yrotation Xrotation
					End Site
					{
						OFFSET 0.000000 0.000000 0.000000
					}
				}
			}
		}
	}
	JOINT lowerback
	{
		OFFSET 0.004439 0.124404 -0.038385
		CHANNELS 3 Zrotation Yrotation Xrotation
		JOINT upperback
		{
			OFFSET 0.004488 0.137956 0.026820
			CHANNELS 3 Zrotation Yrotation Xrotation
			JOINT chest
			{
				OFFSET -0.002265 0.056032 0.002855
				CHANNELS 3 Zrotation Yrotation Xrotation
				JOINT lowerneck
				{
					OFFSET -0.013390 0.211636 -0.033468
					CHANNELS 3 Zrotation Yrotation Xrotation
					JOINT upperneck
					{
						OFFSET 0.010113 0.088937 0.050410
						CHANNELS 3 Zrotation Yrotation Xrotation
						End Site
						{
							OFFSET 0.000000 0.000000 0.000000
						}
					}
				}
				JOINT lclavicle
				{
					OFFSET 0.071702 0.114000 -0.018898
					CHANNELS 3 Zrotation Yrotation Xrotation
					JOINT lshoulder
					{
						OFFSET 0.122921 0.045205 -0.019046
						CHANNELS 3 Zrotation Yrotation Xrotation
						JOINT lelbow
						{
							OFFSET 0.255332 -0.015649 -0.022946
							CHANNELS 3 Zrotation Yrotation Xrotation
							JOINT lwrist
							{
								OFFSET 0.265709 0.012698 -0.007375
								CHANNELS 3 Zrotation Yrotation Xrotation
								End Site
								{
									OFFSET 0.000000 0.000000 0.000000
								}
							}
						}
					}
				}
				JOINT rclavicle
				{
					OFFSET -0.082954 0.112472 -0.023707
					CHANNELS 3 Zrotation Yrotation Xrotation
					JOINT rshoulder
					{
						OFFSET -0.113228 0.046853 -0.008472
						CHANNELS 3 Zrotation Yrotation Xrotation
						JOINT relbow
						{
							OFFSET -0.260127 -0.014369 -0.031269
							CHANNELS 3 Zrotation Yrotation Xrotation
							JOINT rwrist
							{
								OFFSET -0.269108 0.006794 -0.006027
								CHANNELS 3 Zrotation Yrotation Xrotation
								End Site
								{
									OFFSET 0.000000 0.000000 0.000000
								}
							}
						}
					}
				}
			}
		}
	}
}
MOTION
Frames: 11
Frame Time: 0.033333
0.444897 0.500111 0.642103 89.170440 2.230120 145.818097 -0.085231 6.798183 -21.758385 -4.999072 -5.787819 80.530123 1.313057 1.452201 -11.065328 0.000000 -0.000000 0.000000 0.785528 -8.234614 -22.469307 -5.058457 4.668937 77.576382 3.905882 -0.427350 -10.298799 0.000000 -0.000000 0.000000 -1.170264 1.650691 28.701271 -2.376223 -4.388325 -8.163860 5.653798 2.405120 -4.866954 -5.534360 -15.096117 -14.218566 14.102966 7.008565 -26.955916 12.496642 -31.877759 -13.395923 -43.367171 -21.506653 10.087109 -177.740121 -51.424271 -165.203838 59.975063 -6.659717 -18.316541 -26.544409 29.440905 -18.986733 43.554120 17.668914 6.880114 173.875121 49.571549 177.862464 -48.140759 11.565646 -27.491106 
0.445841 0.499304 0.642162 89.157491 2.296787 145.353733 0.444098 6.554099 -24.004953 -4.426017 -4.342360 84.781508 1.237560 1.038000 -11.403594 0.000000 -0.000000 0.000000 0.192008 -8.266427 -23.769019 -4.847675 4.075706 81.392086 3.774105 -0.481304 -11.131585 0.000000 -0.000000 0.000000 -1.323303 1.624488 28.641598 -2.015549 -4.502195 -8.427557 5.778612 2.309318 -5.655047 -5.555419 -15.325802 -15.230802 14.028180 7.197582 -26.452347 12.575721 -32.793217 -13.921357 -43.213309 -22.510085 8.789186 -179.417486 -49.801015 -162.792523 59.317952 -7.612549 -17.058810 -26.554477 30.795584 -19.481889 44.859899 19.101142 6.991345 177.676871 48.730782 -178.466620 -47.303168 12.546822 -26.097372 
0.446453 0.498579 0.642233 89.223825 2.414195 145.041424 1.256331 6.604033 -25.864767 -4.263325 -2.972068 88.699782 1.175593 0.400843 -11.811031 0.000000 -0.000000 0.000000 -0.436921 -8.457489 -24.766924 -4.499088 3.490757 85.214153 3.518832 -0.390006 -12.365986 0.000000 -0.000000 0.000000 -1.391137 1.676886 28.729290 -1.560063 -4.583251 -8.773479 5.818354 2.223038 -6.538947 -5.367610 -14.945515 -16.946170 13.702192 6.829092 -25.581470 13.410357 -33.572569 -14.719183 -42.951964 -23.818889 7.492966 179.149394 -48.622831 -160.353458 59.602750 -8.265016 -16.355591 -26.656761 31.764506 -20.083925 46.150674 21.103925 6.937912 -179.677896 48.046319 -175.238772 -47.054829 12.883787 -25.922067 
0.447090 0.497915 0.642463 89.336215 2.531966 144.905274 2.310523 6.699609 -27.278166 -4.029914 -1.497749 92.101925 1.146087 -0.034724 -12.184248 0.000000 -0.000000 0.000000 -1.195984 -8.754070 -25.475819 -4.167089 2.826920 89.038178 3.307148 -0.122324 -13.731833 0.000000 -0.000000 0.000000 -1.383107 1.748450 28.966069 -1.151132 -4.666405 -9.368912 5.819241 2.215595 -7.477023 -5.036993 -14.479326 -19.085559 13.359052 6.325866 -24.521595 14.662368 -34.418413 -15.604466 -42.541028 -25.202557 6.082182 177.341434 -47.641976 -157.853242 59.932531 -8.513934 -15.925816 -27.065926 32.684079 -20.745413 47.432454 23.293591 6.487819 -177.015545 47.548355 -171.757408 -46.792013 13.133554 -25.593103 
0.447871 0.497271 0.642930 89.463808 2.653378 144.896253 3.510988 6.798640 -28.130131 -3.728125 -0.075968 95.063999 1.241674 -0.155579 -13.010549 0.000000 -0.000000 0.000000 -2.123844 -9.084355 -25.821217 -3.860459 2.163089 92.809127 3.197552 0.261283 -15.216084 0.000000 -0.000000 0.000000 -1.307235 1.765521 29.339715 -0.895727 -4.688766 -10.210491 5.800458 2.258734 -8.297623 -4.633016 -14.075473 -21.216061 13.118243 5.891205 -23.635402 16.104230 -34.747906 -16.757658 -42.328142 -26.925064 4.344518 175.052049 -46.782225 -155.096442 59.203390 -8.000009 -16.103193 -27.736502 33.138909 -21.521494 48.418980 25.637100 5.773338 -174.215508 47.269716 -168.157988 -46.765267 12.996279 -25.189121 
0.448977 0.496301 0.643215 89.544723 2.759517 144.852754 4.754422 7.073358 -28.338101 -3.974541 1.086203 98.016484 1.317394 -0.272024 -14.458877 0.000000 -0.000000 0.000000 -3.330728 -9.680103 -25.493442 -3.108810 1.750711 96.452142 3.214318 0.583735 -16.494793 0.000000 -0.000000 0.000000 -1.203141 1.781113 29.707016 -0.766716 -4.688253 -11.071485 5.776154 2.315984 -9.014546 -4.295996 -13.929569 -22.987313 12.980129 5.744581 -22.733122 17.331736 -34.985091 -17.928548 -41.574435 -28.641115 2.012362 172.311058 -46.474265 -152.200448 57.378724 -6.786501 -16.666020 -28.479174 33.579165 -22.202541 48.276346 27.896430 4.179885 -170.467237 47.193442 -164.494298 -45.874047 12.067646 -26.059760 
0.449693 0.495675 0.643660 89.637734 2.843435 144.839539 5.942482 7.671219 -27.904401 -4.811970 1.832457 101.482809 1.420289 -0.438510 -15.931680 0.000000 -0.000000 0.000000 -4.949022 -10.437270 -24.683396 -1.971415 1.546353 100.620622 3.149952 0.971037 -17.722293 0.000000 -0.000000 0.000000 -1.031799 1.789050 29.886372 -0.684478 -4.659882 -11.886548 5.738875 2.300534 -9.555375 -4.127013 -13.880673 -23.925310 12.861442 5.851083 -21.879971 18.838088 -35.314908 -19.176570 -40.502808 -30.029822 -0.614835 169.145078 -46.789716 -149.084904 55.705319 -5.203469 -17.231821 -29.796635 33.787152 -23.300144 47.774777 29.951130 2.212553 -166.644694 47.657554 -161.294442 -44.584576 10.229709 -27.654612 
0.449278 0.495553 0.644485 89.949349 2.868573 145.091344 6.803792 9.188757 -27.408417 -5.984914 1.310712 106.206701 1.615261 -0.245550 -17.162531 0.000000 -0.000000 0.000000 -6.809285 -11.349238 -23.602973 -0.712131 1.712218 105.728328 2.898835 1.181834 -18.608751 0.000000 -0.000000 0.000000 -0.700135 1.473034 29.618542 -0.617525 -4.609164 -12.608051 5.725660 2.312294 -9.920981 -4.231651 -14.155414 -23.737731 12.727922 6.444102 -20.941065 20.910230 -35.493261 -20.478216 -39.300309 -30.970372 -3.608223 165.534571 -47.428487 -145.741315 54.281833 -2.513839 -18.619112 -32.011095 33.713692 -24.701876 47.130111 31.774151 -0.231964 -162.695701 48.529616 -158.218997 -43.234150 7.707267 -29.849572 
0.448825 0.494773 0.645579 90.114712 3.053421 145.325033 8.466987 9.621257 -25.852051 -7.078898 1.742898 111.422058 1.539944 0.152390 -18.098680 0.000000 -0.000000 0.000000 -9.115428 -11.618118 -21.670755 0.615601 2.314553 111.432852 2.526133 0.778083 -19.240674 0.000000 -0.000000 0.000000 -0.467139 1.379322 29.025454 -0.455589 -4.624059 -12.817141 5.560646 2.361141 -10.566758 -4.573856 -14.354415 -21.964670 12.517107 7.184090 -19.843442 23.210055 -35.632341 -21.577715 -37.725357 -31.692843 -6.950307 160.177879 -49.081279 -141.345772 52.613637 0.397348 -20.598983 -34.201694 33.623367 -25.886517 46.186628 33.565167 -2.901008 -157.231176 50.211432 -153.670543 -42.064329 4.731783 -32.388422 
0.448487 0.493681 0.646644 90.329067 3.091456 145.700696 10.475360 9.408361 -23.584581 -7.980087 1.929646 116.441748 1.660468 1.416132 -18.296093 0.000000 -0.000000 0.000000 -11.862380 -11.229101 -18.836423 2.105894 3.192525 116.807139 1.644449 -0.740669 -19.431962 0.000000 -0.000000 0.000000 -0.283488 1.204697 27.653910 -0.276654 -4.689030 -12.638110 5.233053 2.322144 -11.003599 -5.268797 -14.481958 -18.179397 12.182297 8.115657 -18.268761 25.360704 -35.946760 -22.108063 -35.437765 -32.374320 -10.871475 152.193933 -52.022183 -134.875069 51.125490 3.369172 -22.500923 -36.044324 33.601546 -26.723810 45.114783 35.381933 -5.566295 -149.066555 52.992755 -146.953014 -40.735578 1.054997 -35.460072 
0.448220 0.492443 0.647960 90.501731 2.930097 146.523754 12.413282 8.408226 -21.015999 -8.639914 1.641959 119.921980 2.034018 3.707560 -18.353423 0.000000 -0.000000 0.000000 -14.823202 -9.963288 -15.880966 3.585979 4.151200 120.733914 0.746863 -3.178924 -19.240159 0.000000 -0.000000 0.000000 -0.390178 1.083069 25.163136 0.026548 -4.720579 -11.686230 4.780793 2.211586 -11.424747 -6.276604 -14.286026 -12.742317 11.427696 8.839687 -16.027798 27.024385 -36.616775 -22.037692 -32.153200 -33.172489 -14.505165 140.342684 -55.569847 -126.380689 49.394297 6.142685 -24.523564 -37.243275 33.745567 -27.048031 43.247937 37.286584 -7.783302 -136.650482 55.838158 -137.789183 -38.797266 -2.580822 -38.192389 
